HIERARCHY
ROOT Hips
{
	OFFSET 0.000000 0.000000 0.000000 
	CHANNELS 6 Xposition Yposition Zposition Zrotation Yrotation Xrotation
	JOINT LeftUpLeg
	{
		OFFSET 1.363060 -1.794630 0.839290 
		CHANNELS 3 Zrotation Yrotation Xrotation
		JOINT LeftLeg
		{
			OFFSET 2.448110 -6.726130 0.000000 
			CHANNELS 3 Zrotation Yrotation Xrotation
			JOINT LeftFoot
			{
				OFFSET 2.562200 -7.039590 0.000000 
				CHANNELS 3 Zrotation Yrotation Xrotation
				JOINT LeftToeBase
				{
					OFFSET 0.157640 -0.433110 2.322550 
					CHANNELS 3 Zrotation Yrotation Xrotation
					End Site
					{
						OFFSET 0.000000 0.000000 0.000000 
					}
				}
			}
		}
	}
	JOINT RightUpLeg
	{
		OFFSET -1.305520 -1.794630 0.839290 
		CHANNELS 3 Zrotation Yrotation Xrotation
		JOINT RightLeg
		{
			OFFSET -2.542530 -6.985550 0.000000 
			CHANNELS 3 Zrotation Yrotation Xrotation
			JOINT RightFoot
			{
				OFFSET -2.568260 -7.056230 0.000000 
				CHANNELS 3 Zrotation Yrotation Xrotation
				JOINT RightToeBase
				{
					OFFSET -0.164730 -0.452590 2.363150 
					CHANNELS 3 Zrotation Yrotation Xrotation
					End Site
					{
						OFFSET 0.000000 0.000000 0.000000 
					}
				}
			}
		}
	}
	JOINT Spine
	{
		OFFSET 0.028270 2.035590 -0.193380 
		CHANNELS 3 Zrotation Yrotation Xrotation
		JOINT Spine1
		{
			OFFSET 0.056720 2.048850 -0.042750 
			CHANNELS 3 Zrotation Yrotation Xrotation
			JOINT Neck1
			{
				OFFSET -0.054170 1.746240 0.172020 
				CHANNELS 3 Zrotation Yrotation Xrotation
				JOINT Head
				{
					OFFSET 0.104070 1.761360 -0.123970 
					CHANNELS 3 Zrotation Yrotation Xrotation
					End Site
					{
						OFFSET 0.000000 0.000000 0.000000 
					}
				}
			}
			JOINT LeftArm
			{
				OFFSET 3.362410 1.200890 -0.311210 
				CHANNELS 3 Zrotation Yrotation Xrotation
				JOINT LeftForeArm
				{
					OFFSET 4.983000 -0.000000 -0.000000 
					CHANNELS 3 Zrotation Yrotation Xrotation
					JOINT LeftHand
					{
						OFFSET 3.483560 -0.000000 -0.000000 
						CHANNELS 3 Zrotation Yrotation Xrotation
						JOINT LeftHandIndex1
						{
							OFFSET 0.715260 -0.000000 -0.000000 
							CHANNELS 3 Zrotation Yrotation Xrotation
							End Site
							{
								OFFSET 0.000000 0.000000 0.000000 
							}
						}
					}
				}
			}
			JOINT RightArm
			{
				OFFSET -3.136600 1.374050 -0.404650 
				CHANNELS 3 Zrotation Yrotation Xrotation
				JOINT RightForeArm
				{
					OFFSET -5.241900 -0.000000 -0.000000 
					CHANNELS 3 Zrotation Yrotation Xrotation
					JOINT RightHand
					{
						OFFSET -3.444170 -0.000000 -0.000000 
						CHANNELS 3 Zrotation Yrotation Xrotation
						JOINT RightHandIndex1
						{
							OFFSET -0.622530 -0.000000 -0.000000 
							CHANNELS 3 Zrotation Yrotation Xrotation
							End Site
							{
								OFFSET 0.000000 0.000000 0.000000 
							}
						}
					}
				}
			}
		}
	}
}
MOTION
Frames: 9
Frame Time: 0.041667
14.450872 16.656931 0.314012 -40.253234 77.198585 -45.224550 -2.679472 1.894920 -24.751010 1.934024 11.906672 32.965081 -0.517714 4.133959 -1.708895 1.284700 -7.182500 -20.257300 31.914270 -12.394530 29.094858 -0.216025 -8.365338 17.845936 -1.350369 8.208076 -17.216852 -0.560400 4.795100 -13.325100 0.334359 7.938872 -0.757028 -5.778015 4.319643 5.504330 4.828179 -3.313139 13.555014 -1.249100 -0.488500 14.315600 -79.034679 30.651405 46.228157 24.284854 -37.290785 -9.181716 -1.112503 0.077919 -21.078435 -7.125000 0.000000 0.000000 81.043679 9.848837 57.716376 -90.031382 60.052905 -52.333768 2.109973 -1.364336 -17.566411 7.125000 0.000000 0.000000 
14.743239 16.633525 0.304380 -41.365145 77.168038 -46.199034 -2.810976 2.012962 -23.921236 1.781448 11.693126 32.247987 -0.801811 5.430847 -0.896295 1.251400 -7.092200 -19.988800 32.369503 -11.883187 28.486419 -0.492666 -9.345614 20.656996 -1.225362 7.701981 -16.079981 -0.603200 4.971600 -13.827600 0.297885 7.671715 -0.838238 -6.058873 4.210159 5.302691 5.060795 -3.354562 13.469409 -1.104400 -0.471700 14.184300 -79.182632 30.393212 45.642743 23.934473 -36.928556 -8.962976 -1.134103 0.040157 -21.479095 -7.125000 0.000000 0.000000 81.426820 8.904926 58.369932 -92.158559 59.676936 -54.110384 2.142623 -1.365935 -18.170954 7.125000 0.000000 0.000000 
15.026285 16.622133 0.293092 -40.927560 77.792475 -45.711827 -3.758901 2.153981 -23.953090 1.966354 12.090282 33.369237 -0.957700 6.149988 -1.306585 1.279900 -7.169600 -20.218800 31.938364 -11.417123 27.676056 -0.906938 -10.434072 23.905507 -1.072467 7.171055 -14.462359 -0.615400 5.020800 -13.967900 0.208315 7.283629 -0.869704 -6.225084 4.032463 5.207203 5.314576 -3.340432 13.254526 -0.942100 -0.451500 13.995800 -79.347977 29.703216 45.199421 23.664372 -36.625470 -8.789250 -1.150731 -0.013940 -22.288438 -7.125000 0.000000 0.000000 81.850798 8.064895 58.713024 -93.514619 59.416087 -55.229519 2.170515 -1.363617 -18.557826 7.125000 0.000000 0.000000 
15.299802 16.625033 0.281907 -37.242580 78.879737 -42.116695 -5.436189 1.781491 -23.829972 2.160013 12.634388 34.818803 -0.910324 5.991453 -2.119247 1.118700 -6.719000 -18.885600 30.502970 -10.810028 26.750678 -1.529199 -11.676150 27.827465 -0.926193 6.932410 -12.432897 -0.574800 4.855300 -13.496400 0.063019 6.902340 -0.838192 -6.193320 3.841794 5.261574 5.580831 -3.245437 13.033095 -0.777000 -0.399200 13.867800 -79.471661 28.476451 45.109104 23.313141 -36.228845 -8.558103 -1.175018 -0.061578 -23.537589 -7.125000 0.000000 0.000000 82.222078 7.244090 58.928249 -94.261635 59.271131 -55.833408 2.189210 -1.356314 -19.009963 7.125000 0.000000 0.000000 
15.573320 16.640257 0.264197 -31.304446 80.119614 -36.280525 -7.512821 1.021228 -23.426960 2.277217 13.137750 36.040025 -0.858315 5.868243 -3.396288 0.977000 -6.292200 -17.634700 28.492936 -10.218029 25.475395 -2.264087 -12.854942 31.774279 -0.702689 6.112377 -9.134017 -0.425800 4.187900 -11.606000 -0.112615 6.539147 -0.781083 -6.167718 3.662861 5.439635 5.749589 -3.124305 12.835685 -0.674900 -0.345600 13.755200 -79.562935 26.933720 45.169856 22.912917 -35.776192 -8.297078 -1.204243 -0.083852 -24.516818 -7.125000 0.000000 0.000000 82.510022 6.214680 58.892848 -94.629849 59.208063 -56.151645 2.212262 -1.320469 -19.671648 7.125000 0.000000 0.000000 
15.846320 16.666252 0.242344 -24.410234 81.291161 -29.450910 -9.640266 0.245879 -22.617890 2.247219 13.426409 36.573002 -0.823696 5.880615 -4.728328 0.995700 -6.350500 -17.804700 26.485218 -9.670885 23.891737 -3.104466 -14.008483 35.839581 -0.470076 4.499135 -4.370460 -0.051300 1.461500 -4.019500 -0.294411 6.152888 -0.720492 -6.255936 3.481288 5.638031 5.906131 -2.992605 12.619548 -0.573300 -0.290600 13.601300 -79.662164 25.244267 45.063026 22.582579 -35.384002 -8.083864 -1.223326 -0.081653 -24.820992 -7.125000 0.000000 0.000000 82.678275 5.171897 58.677883 -94.324110 59.293955 -55.901729 2.228723 -1.280219 -20.248908 7.125000 0.000000 0.000000 
16.113520 16.700843 0.222874 -18.210907 82.108125 -23.314247 -11.333023 -0.132754 -21.322218 2.051861 13.391920 36.193950 -0.785312 5.851696 -5.593393 1.058000 -6.539900 -18.359200 25.155009 -8.887727 22.168511 -3.979324 -15.067100 39.751328 -0.378311 2.941154 -0.341496 -0.012900 -0.734600 2.018800 -0.431539 5.823309 -0.652299 -6.331620 3.325898 5.823802 6.057284 -2.884500 12.438414 -0.462800 -0.248000 13.486900 -79.790751 23.390681 45.004590 22.311831 -35.040853 -7.907003 -1.232823 -0.063034 -24.732240 -7.125000 0.000000 0.000000 82.702563 4.045504 58.394381 -93.608286 59.464592 -55.275807 2.230855 -1.257953 -20.888178 7.125000 0.000000 0.000000 
16.381342 16.743305 0.201539 -12.891898 82.793560 -18.118358 -12.752460 -0.084379 -19.590448 1.704859 13.065798 34.989657 -0.718350 5.627349 -5.940150 1.048100 -6.510400 -18.272600 24.136859 -8.164908 20.404211 -4.883006 -16.041967 43.532663 -0.380293 1.217926 3.557481 -0.239000 -3.146400 8.686700 -0.514622 5.522536 -0.568136 -6.310673 3.175542 6.049552 6.078299 -2.808412 12.341397 -0.424000 -0.235700 13.468600 -80.034498 21.325124 45.166749 22.095583 -34.744555 -7.759893 -1.233107 -0.044280 -24.381941 -7.125000 0.000000 0.000000 82.532123 2.786596 57.978203 -92.488195 59.708557 -54.295049 2.231055 -1.224812 -21.754776 7.125000 0.000000 0.000000 
16.648542 16.797884 0.178962 -5.203987 83.565635 -10.626835 -14.389854 0.175184 -17.676426 1.302050 12.616572 33.448653 -0.652538 5.391384 -6.123580 1.046900 -6.506800 -18.262000 22.749674 -7.625617 18.617593 -5.846101 -16.925896 47.237474 -0.459406 1.550434 5.407052 -0.073600 -1.750400 4.816400 -0.580460 5.103441 -0.485992 -6.125816 2.930898 6.238590 6.026520 -2.544504 12.330885 -0.425600 -0.143500 13.495800 -80.517196 19.184762 45.097573 21.874295 -34.448774 -7.613763 -1.227463 -0.007649 -23.659356 -7.125000 0.000000 0.000000 82.097489 1.700731 57.823399 -90.316529 60.136870 -52.417694 2.232277 -1.147620 -22.978294 7.125000 0.000000 0.000000 
